<?xml version="1.0" encoding="utf-8"?>
<!-- Generator: Adobe Illustrator 26.2.1, SVG Export Plug-In . SVG Version: 6.00 Build 0)  -->
<svg version="1.1" id="Layer_1" xmlns="http://www.w3.org/2000/svg" xmlns:xlink="http://www.w3.org/1999/xlink" x="0px" y="0px"
	 viewBox="0 0 4000 1714.7" style="enable-background:new 0 0 4000 1714.7;" xml:space="preserve">
<style type="text/css">
	.st0{fill:#D00000;}
	.st1{fill:#E70000;}
	.st2{fill:#FCB82E;}
	.st3{fill:#F4F4E4;}
	.st4{fill-rule:evenodd;clip-rule:evenodd;fill:#D2CAB5;}
	.st5{fill:#3B273D;}
	.st6{fill-rule:evenodd;clip-rule:evenodd;fill:#3B273D;}
	.st7{fill-rule:evenodd;clip-rule:evenodd;fill:#16021A;}
	.st8{fill:#FFFFFF;}
	.st9{enable-background:new    ;}
	.st10{fill:#F05A28;}
	.st11{fill:#F79527;}
	.st12{fill:#CD1F42;}
	.st13{fill:#DE4780;}
	.st14{fill:#C29738;}
	.st15{fill:#5F9B7A;}
	.st16{fill:#7DC79B;}
	.st17{fill:#F58A28;}
	.st18{fill:#B32D2F;}
	.st19{fill:#F05757;}
	.st20{fill:#3BC0CB;}
	.st21{fill:#008EA7;}
	.st22{fill:none;}
	.st23{fill:#D2373A;}
	.st24{fill:#E67F69;}
	.st25{fill:#28AB80;}
	.st26{fill:#93D5D8;}
	.st27{fill:#68C5B7;}
	.st28{clip-path:url(#SVGID_00000136375190910987638880000002575306149385751206_);fill:#008EA7;}
	.st29{fill:#4E857A;}
	.st30{fill:#ACDBCF;}
	.st31{fill:#E25526;}
	.st32{clip-path:url(#SVGID_00000070816142357681879280000009114511901136540821_);enable-background:new    ;}
	.st33{fill:#A18445;}
	.st34{clip-path:url(#SVGID_00000137105432464840913550000008770826327121515197_);enable-background:new    ;}
	.st35{fill:#443937;}
	.st36{fill:#1D1D1B;}
	.st37{fill-rule:evenodd;clip-rule:evenodd;fill:#FFFFFF;}
	.st38{fill:#3C0000;}
</style>
<g>
	<g>
		<polygon class="st1" points="2871,28.8 3675.5,533.9 3029.8,1268.2 2977.7,885.2 791,1539.8 634.1,440.3 2921.2,413 		"/>
	</g>
	<path class="st37" d="M958.8,118.9c124.5,241.8-2.9,370.9-77.4,534.2c-42.2,92.5-81,180-98.9,267.3c-0.9-64.4,0.5-131.9,1.5-199.1
		c4.3-313.4-92.4-560.5-413.9-565.5C161.6,152.5-35.5,338.2,5.4,585.9c21.1,127.4,176,293,422,203.7c-120.1-72.8-12-205.8,87.4-5.6
		c96.9,195.2,62,409.3,231.1,502c-15.5,31.6-16.7,64.5,11.8,114.8c34.2,60.2,95.5,174.6,3.5,183.5c-66.1,12.4-111,35.9-59.9,96.6
		c50.6,60.2,221.9,24.1,258.2-5.3c32.4-26.3,1.9-74.8,44.6-119.9c30.7-32.3,81.4-49.3,135.1-53.1c53.7,3.8,104.4,20.8,135.1,53.1
		c42.7,45.1,12.1,93.7,44.6,119.9c33.7,27.3,183.6,60.3,245.5,16.8c43.7-30.7,41.6-71.1-11-95.8c-139-65.2-82.6-1.9-5.2-181.7
		c38.1-88.4-58.3-151.4-52.7-240.8c5.1-80.4,28.1-101.3,36.2-164c20-154-88.4-220.9-149.2-312.5c-30.6-46.1-16.5-78.4-0.8-83.3
		c92.5-29.2,191.3-10.7,224.6-101.1c20.6-55.9-62.6-116.1-99.1-171.5c-66.7-101.1-189.3-110.3-279.8-117.9
		C1100.8,213.2,991.7,50.8,958.8,118.9z M1058.4,503.9c54.9-21.7,56.4-3.7,74.5,43.1c18.5,47.8,33.7,98.6,47.2,147.8l-0.2-0.1
		c76.7,20.5,140.5,60.6,182.2,109c35.2,40.9,57.5,88.1,52.5,133.9c-6.2,57-113.6-9.1-137.3-25.1c-75.5-51.1-113.1,78.2-62.8,125.4
		c28,26.3,55.8,44.6,86.1,54.4c-56.5,95-119.6,119.6-175.8,141.5c-37.5,14.6-71.8,27.9-98.7,60.7c-9.3,11.4-10.6,9.7-12.9-4
		c-7.8-45.9-35.6-76.6-63.3-111.6c18.3,1,37.7-0.3,58.6-3.5c68.2-10.5,110.2-138.5,19.1-139c-61.3-0.3-120.1-13.1-150.8-53.7
		c-0.9-42,4.2-92.4,17.8-154.2c-50.9-13.6-48.4-21.1-39.8-39.6c19.5-42.3,61.6-72.8,112.9-90.8c39.5-13.8,85.5-19.8,134.1-16.4
		c-18-27.3-44.7-53.5-66.7-75.2C982.1,554.5,981.2,534.6,1058.4,503.9z"/>
	<g>
		<g>
			<path class="st8" d="M1927.6,1578v-189.8h63.1c21,0,37.5,4.3,49.3,13c11.8,8.6,17.7,21.6,17.7,38.8c0,8.6-2.5,16.3-7.4,23.1
				c-5,6.8-11.8,11.8-20.6,15.1c11.3,2.5,20,8,26.1,16.3c6.1,8.3,9.1,18,9.1,29.1c0,17.8-5.8,31.3-17.5,40.6
				c-11.6,9.3-27.7,13.9-48.2,13.9H1927.6z M1959.3,1468.1h34.9c9.8,0,17.6-2.3,23.3-7c5.7-4.6,8.5-11.2,8.5-19.7
				c0-9.4-3-16.4-9-20.9c-6-4.6-14.8-6.8-26.3-6.8h-31.4V1468.1z M1959.3,1491.7v60.9h39.9c10.9,0,19.4-2.5,25.3-7.5
				c5.9-5,8.9-12.2,8.9-21.7c0-10.1-2.5-17.9-7.4-23.4c-5-5.5-12.7-8.3-23.2-8.3H1959.3z"/>
			<path class="st8" d="M2155.1,1580.7c-20,0-35.9-6.5-47.8-19.6c-11.9-13.1-17.8-29.9-17.8-50.4v-5.2c0-20.5,5.9-37.5,17.7-51
				c11.8-13.5,26.5-20.2,44.3-20.1c19,0,33.6,5.8,43.7,17.3c10.1,11.5,15.2,27,15.2,46.3v18.6h-88l-0.3,0.6
				c0.5,11.2,3.8,20.3,9.8,27.4c6,7.1,14.4,10.7,25.1,10.7c8.5,0,15.8-1,21.9-3.1c6.1-2.1,11.9-5.1,17.6-9l10.2,20.8
				c-5.3,4.7-12.3,8.7-21.1,11.9C2176.8,1579.1,2166.6,1580.7,2155.1,1580.7z M2151.4,1459.8c-7.8,0-14.3,3.1-19.3,9.3
				c-5,6.2-8.2,14.1-9.4,23.7l0.3,0.7h55.9v-3.3c0-8.9-2.3-16.2-6.8-21.9C2167.5,1462.6,2160.6,1459.8,2151.4,1459.8z"/>
			<path class="st8" d="M2269.7,1578H2238v-203.3h31.7V1578z"/>
			<path class="st8" d="M2351,1516.3h-14.2v61.7h-31.5v-203.3h31.5v116.3h13.2l35.6-54h37.3l-46.5,64.1l53.4,76.9H2393L2351,1516.3z
				"/>
			<path class="st8" d="M2529.7,1578c-1.1-3.6-2.1-7-2.8-10.4c-0.7-3.4-1.2-6.8-1.5-10.2c-4.3,6.6-10.1,12.1-17.1,16.6
				c-7.1,4.5-15,6.7-23.8,6.7c-14.7,0-26-3.8-33.8-11.3c-7.9-7.6-11.8-17.9-11.8-31.2c0-13.6,5.4-24.3,16.2-31.9
				c10.8-7.6,25.9-11.4,45.5-11.4h24.6v-12.4c0-7.4-2.2-13.2-6.5-17.3c-4.3-4.2-10.6-6.3-18.6-6.3c-7.2,0-12.9,1.7-17.2,5.2
				c-4.3,3.5-6.4,8-6.4,13.4h-30.5l-0.1-0.8c-0.6-11.1,4.4-21,14.9-29.6s24.3-12.9,41.3-12.9c16.4,0,29.7,4.2,39.8,12.5
				c10.1,8.3,15.1,20.3,15.1,36v62.7c0,5.8,0.4,11.4,1.2,16.7c0.8,5.3,2,10.6,3.8,15.7H2529.7z M2490.8,1555.3c8,0,15.2-2,21.6-6
				c6.4-4,10.6-8.6,12.7-13.7v-20.9H2500c-9.2,0-16.4,2.3-21.6,6.8c-5.2,4.6-7.8,9.9-7.8,16.1c0,5.4,1.8,9.7,5.3,12.8
				C2479.3,1553.7,2484.3,1555.3,2490.8,1555.3z"/>
			<path class="st8" d="M2741.4,1578c-1.1-3.6-2.1-7-2.8-10.4c-0.7-3.4-1.2-6.8-1.5-10.2c-4.3,6.6-10.1,12.1-17.1,16.6
				c-7.1,4.5-15,6.7-23.8,6.7c-14.7,0-26-3.8-33.8-11.3c-7.9-7.6-11.8-17.9-11.8-31.2c0-13.6,5.4-24.3,16.2-31.9
				c10.8-7.6,25.9-11.4,45.5-11.4h24.6v-12.4c0-7.4-2.2-13.2-6.5-17.3c-4.3-4.2-10.6-6.3-18.6-6.3c-7.2,0-12.9,1.7-17.2,5.2
				c-4.3,3.5-6.4,8-6.4,13.4h-30.5l-0.1-0.8c-0.6-11.1,4.4-21,14.9-29.6s24.3-12.9,41.3-12.9c16.4,0,29.7,4.2,39.8,12.5
				c10.1,8.3,15.1,20.3,15.1,36v62.7c0,5.8,0.4,11.4,1.2,16.7c0.8,5.3,2,10.6,3.8,15.7H2741.4z M2702.5,1555.3c8,0,15.2-2,21.6-6
				c6.4-4,10.6-8.6,12.7-13.7v-20.9h-25.2c-9.2,0-16.4,2.3-21.6,6.8c-5.2,4.6-7.8,9.9-7.8,16.1c0,5.4,1.8,9.7,5.3,12.8
				C2691,1553.7,2696,1555.3,2702.5,1555.3z"/>
			<path class="st8" d="M2830.4,1437l1.8,20.3c4.6-7.2,10.4-12.8,17.4-16.9c7-4,14.9-6.1,23.7-6.1c14.7,0,26.1,4.5,34.3,13.4
				c8.2,8.9,12.3,22.8,12.3,41.6v88.6h-31.7v-88.4c0-10.6-2.2-18.1-6.6-22.6c-4.4-4.5-11.1-6.7-20-6.7c-6.2,0-11.7,1.4-16.6,4.1
				c-4.9,2.7-8.9,6.5-12,11.3V1578h-31.7v-141H2830.4z"/>
			<path class="st8" d="M2947,1509.4c0-22.5,4.8-40.6,14.5-54.4c9.6-13.8,23.2-20.7,40.7-20.7c7.6,0,14.5,1.5,20.5,4.6
				c6,3.1,11.3,7.5,15.7,13.2v-77.6h31.7V1578h-26.6l-3.1-17.5c-4.5,6.6-10,11.6-16.3,15.1c-6.3,3.4-13.7,5.1-22.2,5.1
				c-17.3,0-30.8-6.3-40.4-18.9c-9.6-12.6-14.5-29.2-14.5-49.7V1509.4z M2978.7,1512.2c0,13,2.5,23.4,7.5,31.2
				c5,7.7,12.9,11.6,23.8,11.6c6.7,0,12.4-1.4,17-4.3c4.6-2.9,8.5-7,11.4-12.3v-61.5c-3-5.2-6.8-9.3-11.5-12.2
				c-4.7-2.9-10.3-4.4-16.7-4.4c-10.8,0-18.7,4.5-23.9,13.6c-5.1,9.1-7.7,20.9-7.7,35.5V1512.2z"/>
			<path class="st8" d="M3277.5,1529.1c0-7.9-2.9-14.3-8.8-19.3c-5.9-5-16.2-9.5-31.1-13.5c-21.2-5.6-37.5-12.9-48.9-22.1
				c-11.4-9.2-17.1-21.2-17.1-36c0-15.3,6.3-27.9,19-37.8c12.6-9.9,29-14.9,48.9-14.9c20.9,0,37.6,5.6,50.2,16.9
				c12.6,11.3,18.7,24.7,18.3,40.5l-0.3,0.8h-30.4c0-9.7-3.3-17.6-9.9-23.7c-6.6-6-16-9.1-28.3-9.1c-11.6,0-20.4,2.5-26.7,7.5
				c-6.2,5-9.3,11.5-9.3,19.5c0,7.2,3.4,13.2,10.1,17.9c6.7,4.8,17.9,9.3,33.4,13.5c20.4,5.5,35.9,13,46.5,22.7
				c10.6,9.6,15.9,21.9,15.9,36.9c0,15.8-6.3,28.4-19,37.7c-12.6,9.3-29.3,14-49.9,14c-19.8,0-37.2-5.3-52.1-15.8
				c-14.9-10.6-22.2-25-21.8-43.2l0.3-0.8h30.5c0,11.6,4,20.2,12,25.9c8,5.7,18.4,8.5,31.2,8.5c11.7,0,20.9-2.4,27.4-7.1
				C3274.2,1543.5,3277.5,1537.1,3277.5,1529.1z"/>
			<path class="st8" d="M3377.8,1402.7v34.3h25.3v23.5h-25.3v77.9c0,5.8,1.3,10,3.8,12.4c2.5,2.5,5.9,3.7,10,3.7
				c1.7,0,3.4-0.2,5.1-0.5c1.6-0.3,3.2-0.7,4.7-1.2l3.4,23.2c-2.7,1.5-5.9,2.6-9.6,3.5c-3.7,0.8-7.6,1.2-11.6,1.2
				c-11.6,0-20.8-3.4-27.4-10.2c-6.6-6.8-9.9-17.5-9.9-32.1v-77.9h-21.5V1437h21.5v-34.3H3377.8z"/>
			<path class="st8" d="M3501.5,1465.5l-13.6-0.5c-6.2,0-11.3,1.3-15.4,3.9c-4.1,2.6-7.3,6.3-9.6,11.1v98h-31.7v-141h28.9l2.1,20.5
				c3.6-7.2,8.1-12.9,13.8-16.9c5.6-4.1,12.1-6.1,19.4-6.1c1.9,0,3.7,0.2,5.3,0.5c1.6,0.3,3.2,0.7,4.6,1.1L3501.5,1465.5z"/>
			<path class="st8" d="M3584.2,1580.7c-20,0-35.9-6.5-47.8-19.6c-11.9-13.1-17.8-29.9-17.8-50.4v-5.2c0-20.5,5.9-37.5,17.7-51
				c11.8-13.5,26.5-20.2,44.3-20.1c19,0,33.6,5.8,43.7,17.3c10.1,11.5,15.2,27,15.2,46.3v18.6h-88l-0.3,0.6
				c0.5,11.2,3.8,20.3,9.8,27.4c6,7.1,14.4,10.7,25.1,10.7c8.5,0,15.8-1,21.9-3.1c6.1-2.1,11.9-5.1,17.6-9l10.2,20.8
				c-5.3,4.7-12.3,8.7-21.1,11.9C3605.9,1579.1,3595.7,1580.7,3584.2,1580.7z M3580.5,1459.8c-7.8,0-14.3,3.1-19.3,9.3
				c-5,6.2-8.2,14.1-9.4,23.7l0.3,0.7h55.9v-3.3c0-8.9-2.3-16.2-6.8-21.9C3596.6,1462.6,3589.7,1459.8,3580.5,1459.8z"/>
			<path class="st8" d="M3698.7,1578h-31.7v-203.3h31.7V1578z"/>
			<path class="st8" d="M3780.1,1516.3h-14.2v61.7h-31.5v-203.3h31.5v116.3h13.2l35.6-54h37.3l-46.5,64.1l53.4,76.9H3822
				L3780.1,1516.3z"/>
			<path class="st8" d="M3958.8,1578c-1.1-3.6-2.1-7-2.8-10.4c-0.7-3.4-1.2-6.8-1.5-10.2c-4.3,6.6-10.1,12.1-17.1,16.6
				c-7.1,4.5-15,6.7-23.8,6.7c-14.7,0-26-3.8-33.8-11.3c-7.9-7.6-11.8-17.9-11.8-31.2c0-13.6,5.4-24.3,16.2-31.9
				c10.8-7.6,25.9-11.4,45.5-11.4h24.6v-12.4c0-7.4-2.2-13.2-6.5-17.3c-4.3-4.2-10.6-6.3-18.6-6.3c-7.2,0-12.9,1.7-17.2,5.2
				c-4.3,3.5-6.4,8-6.4,13.4H3875l-0.1-0.8c-0.6-11.1,4.4-21,14.9-29.6s24.3-12.9,41.3-12.9c16.4,0,29.7,4.2,39.8,12.5
				c10.1,8.3,15.1,20.3,15.1,36v62.7c0,5.8,0.4,11.4,1.2,16.7c0.8,5.3,2,10.6,3.8,15.7H3958.8z M3919.9,1555.3c8,0,15.2-2,21.6-6
				c6.4-4,10.6-8.6,12.7-13.7v-20.9h-25.2c-9.2,0-16.4,2.3-21.6,6.8c-5.2,4.6-7.8,9.9-7.8,16.1c0,5.4,1.8,9.7,5.3,12.8
				C3908.4,1553.7,3913.4,1555.3,3919.9,1555.3z"/>
		</g>
		<g>
			<path class="st8" d="M1925.6,1713.4v-59.3h-10.8v-5.9h10.8v-9.5c0-6.5,1.6-11.6,4.9-15.2c3.3-3.6,7.9-5.4,13.8-5.4
				c1.3,0,2.7,0.1,4,0.3c1.4,0.2,2.8,0.5,4.2,0.8l-0.9,6c-1-0.2-2-0.4-3-0.6c-1-0.1-2.2-0.2-3.6-0.2c-3.9,0-7,1.2-9,3.7
				c-2.1,2.5-3.1,6-3.1,10.5v9.5h15.5v5.9h-15.5v59.3H1925.6z"/>
			<path class="st8" d="M2188.5,1654.4l-5.4-0.4c-4.5,0-8.3,1.3-11.2,3.8c-2.9,2.6-5,6.1-6.2,10.5v45h-7.2v-65.2h6.3l0.9,10.8v0.7
				c1.9-4,4.4-7.2,7.6-9.4c3.2-2.2,7-3.4,11.3-3.4c0.9,0,1.8,0.1,2.7,0.2c0.9,0.1,1.6,0.3,2.1,0.5L2188.5,1654.4z"/>
			<path class="st8" d="M2439.2,1713.4c-0.5-2.2-0.8-4.1-1-5.7c-0.2-1.6-0.3-3.2-0.3-4.9c-2.4,3.4-5.6,6.2-9.6,8.5
				c-4,2.2-8.5,3.4-13.6,3.4c-6.3,0-11.3-1.7-14.8-5.1c-3.5-3.4-5.3-7.9-5.3-13.6c0-6,2.6-10.8,7.8-14.5c5.2-3.6,12.2-5.4,21.1-5.4
				h14.4v-8.1c0-4.7-1.5-8.3-4.5-11s-7.2-4-12.6-4c-5,0-9.2,1.3-12.5,3.8c-3.3,2.5-5,5.6-5,9.3l-6.6-0.1l-0.1-0.4
				c-0.2-4.9,2-9.2,6.7-13c4.7-3.8,10.6-5.8,17.9-5.8c7.2,0,13,1.8,17.4,5.5c4.4,3.7,6.6,8.9,6.6,15.7v32.1c0,2.3,0.1,4.5,0.4,6.7
				c0.3,2.2,0.7,4.3,1.3,6.4H2439.2z M2415.5,1708.3c5.2,0,9.8-1.2,13.7-3.6c4-2.4,6.8-5.5,8.6-9.3v-13.6h-14.5
				c-6.5,0-11.8,1.4-15.7,4.2c-3.9,2.8-5.9,6.3-5.9,10.4c0,3.5,1.2,6.4,3.6,8.6C2407.9,1707.2,2411.2,1708.3,2415.5,1708.3z"/>
			<path class="st8" d="M2668.1,1648.2l0.7,11.4c2.1-4,4.9-7.1,8.5-9.3s7.8-3.3,12.6-3.3c7.1,0,12.5,2.2,16.2,6.5
				c3.7,4.3,5.5,11.1,5.5,20.2v39.7h-7.2v-39.7c0-7.5-1.4-12.8-4.2-15.9c-2.8-3.1-6.8-4.6-11.9-4.6c-5.1,0-9.2,1.3-12.4,4
				c-3.2,2.7-5.5,6.2-6.9,10.7v45.6h-7.2v-65.2H2668.1z"/>
			<path class="st8" d="M2952.1,1708.5c4.8,0,9-1.4,12.7-4.1c3.7-2.7,5.5-6.5,5.5-11.3h6.4l0.1,0.4c0.2,6-2.2,11.1-7.2,15.1
				c-5,4.1-10.8,6.1-17.4,6.1c-8.9,0-15.7-3-20.6-9.1c-4.8-6.1-7.3-13.9-7.3-23.5v-2.5c0-9.5,2.4-17.3,7.3-23.4
				c4.9-6.1,11.7-9.2,20.5-9.2c7.2,0,13.1,2.1,17.9,6.3s7.1,9.8,6.9,16.6l-0.1,0.4h-6.4c0-5.2-1.8-9.4-5.3-12.5
				c-3.5-3.1-7.8-4.7-12.9-4.7c-7,0-12.2,2.5-15.5,7.5s-5,11.3-5,18.9v2.5c0,7.7,1.7,14,5,19S2945,1708.5,2952.1,1708.5z"/>
			<path class="st8" d="M3196.6,1659.4c2.2-3.9,5.1-6.9,8.7-9.1c3.6-2.2,7.8-3.3,12.7-3.3c6.9,0,12.1,2.1,15.8,6.4
				c3.7,4.3,5.5,10.9,5.5,19.8v40.2h-7.2V1673c0-7.1-1.4-12.2-4.2-15.2c-2.8-3.1-6.6-4.6-11.5-4.6c-4.9,0-9.1,1.3-12.4,3.9
				c-3.3,2.6-5.8,6-7.3,10.4v46h-7.2v-94h7.2V1659.4z"/>
			<path class="st8" d="M3463.6,1629.5h-7.2v-10.1h7.2V1629.5z M3463.6,1713.4h-7.2v-65.2h7.2V1713.4z"/>
			<path class="st8" d="M3720.1,1696.8c0-3-1.3-5.7-3.8-8c-2.5-2.3-7-4.1-13.6-5.6c-7.8-1.7-13.5-3.9-17.3-6.7
				c-3.7-2.8-5.6-6.7-5.6-11.8c0-5,2.1-9.2,6.3-12.6c4.2-3.4,9.8-5.2,16.7-5.2c7.4,0,13.2,1.8,17.5,5.5c4.3,3.6,6.3,8.2,6.1,13.7
				l-0.1,0.4h-6.7c0-3.6-1.5-6.7-4.5-9.3c-3-2.7-7.1-4-12.3-4c-5.3,0-9.2,1.1-11.8,3.4c-2.6,2.3-3.9,4.9-3.9,7.9
				c0,3,1.1,5.5,3.4,7.4c2.3,2,6.8,3.7,13.6,5.2c7.8,1.7,13.6,4.1,17.4,7.1c3.9,3,5.8,7.1,5.8,12.2c0,5.4-2.2,9.8-6.6,13.2
				c-4.4,3.4-10.2,5-17.4,5c-7.9,0-14.1-1.9-18.7-5.7c-4.5-3.8-6.7-8.3-6.4-13.5l0.1-0.4h6.6c0.3,4.7,2.2,8.1,5.8,10.2
				c3.6,2.1,7.7,3.2,12.6,3.2c5.2,0,9.3-1.1,12.4-3.4C3718.6,1702.8,3720.1,1700.1,3720.1,1696.8z"/>
			<path class="st8" d="M3965.8,1714.7c-8.2,0-14.9-3-20.3-9c-5.4-6-8.1-13.7-8.1-22.9v-3.3c0-9.3,2.7-17.1,8-23.2
				c5.4-6.1,11.9-9.2,19.5-9.2c8,0,14.3,2.5,18.9,7.6s6.9,11.8,6.9,20.2v6.1h-46v1.7c0,7.3,1.9,13.5,5.8,18.4
				c3.9,4.9,9,7.4,15.4,7.4c4.5,0,8.3-0.6,11.5-1.9c3.2-1.2,5.9-3,8.1-5.4l3.1,4.9c-2.5,2.6-5.6,4.6-9.3,6.2
				C3975.5,1713.9,3971,1714.7,3965.8,1714.7z M3964.9,1653.2c-5.3,0-9.8,2-13.4,6.1c-3.6,4.1-5.7,9.2-6.3,15.3l0.1,0.3h38.2v-1.8
				c0-5.6-1.7-10.4-5-14.2C3975.1,1655.1,3970.6,1653.2,3964.9,1653.2z"/>
		</g>
	</g>
	<g>
		<path class="st38" d="M2043.9,569.6c-2-14.1-8.2-24.4-18.7-30.8s-28.4-12.2-53.9-17.4c-53-8.8-93-20.6-120-35.4
			c-27-14.8-43-39.5-47.9-74c-4.8-33.6,5.9-62.9,32.1-87.8c26.2-24.9,61.7-40.5,106.5-46.9c44.5-6.3,82.5,0,114.1,18.8
			c31.6,18.8,49.5,46.3,53.7,82.5l-0.3,1.7l-90.4,12.8c-2.3-16-9.5-28.2-21.8-36.7c-12.3-8.5-27.9-11.4-47-8.6
			c-18.7,2.7-32.9,8.9-42.3,18.7c-9.5,9.8-13.4,20.7-11.6,32.9c1.7,11.8,8.4,20.4,20.1,26c11.8,5.5,33.2,11.6,64.3,18
			c47.5,7.1,84.2,19,110,35.6c25.9,16.6,41.3,42.2,46.2,76.9c5,35.3-4.8,64.8-29.5,88.7c-24.6,23.8-59.6,39-105,45.4
			c-45.6,6.5-86.6,0.6-123.1-17.5c-36.5-18.2-57.3-48.8-62.5-91.9l0.3-1.7l90.7-12.9c3.3,23.1,11.9,38.8,25.8,46.9
			c13.9,8.1,33.5,10.4,58.9,6.8c19.3-2.7,33.1-8.6,41.5-17.7C2042.4,592.9,2045.7,582.1,2043.9,569.6z"/>
		<path class="st38" d="M2163.8,509.6c-6.6-46.5-1.8-85.4,14.5-116.8c16.3-31.4,42.9-49.7,79.8-54.9c15.6-2.2,30-0.5,43.1,5.3
			c13.1,5.7,24.9,14.9,35.5,27.4l2.1-38.5l80.7-11.5l58.5,412.8l-93.1,13.2l-20.2-142.2c-6.9,12-15.6,21.7-26.1,29s-22.9,12-37.2,14
			c-36.7,5.2-67.1-4.3-91.2-28.7c-24.1-24.3-39.3-58.8-45.6-103.4L2163.8,509.6z M2257.8,502.2c3.4,24.2,9.7,42.6,18.6,55.1
			c9,12.5,21.8,17.6,38.6,15.2c10.3-1.5,18.9-4.3,25.8-8.6c6.9-4.3,12.2-9.9,15.9-17l-17.6-124c-5.7-6.9-12.4-11.7-20.2-14.6
			c-7.8-2.8-16.8-3.5-26.9-2.1c-16.5,2.3-27.4,11.7-32.6,28c-5.2,16.3-6,37-2.4,62.2L2257.8,502.2z"/>
		<path class="st38" d="M2688.3,550.8c-7.7,14.6-18,26.4-30.8,35.4c-12.9,9-28,14.8-45.5,17.3c-30.9,4.4-56.5-2.1-76.8-19.5
			c-20.4-17.4-33.5-46.9-39.4-88.6L2470,313.5l92.9-13.2l25.9,182.4c2.4,16.7,7.3,28.8,14.8,36.1s17.1,10.2,28.9,8.6
			c9.9-1.4,18.4-4,25.6-7.8c7.1-3.8,13-8.9,17.5-15.1L2645,288.7l93.1-13.2l42.3,298.2l-81.3,11.5L2688.3,550.8z"/>
		<path class="st38" d="M2877.1,185.2l-93.4,13.2l-8.9-62.6l93.4-13.2L2877.1,185.2z M2929.2,552.6l-93.4,13.2l-42.3-298.2
			l93.4-13.2L2929.2,552.6z"/>
		<path class="st38" d="M3124,304.6l-33.9,4.5c-10.7,1.5-19.1,4.5-25.4,9.1c-6.3,4.5-10.6,10.4-13,17.4l27.8,195.7l-93.1,13.2
			L2944,246.3l87.6-12.4l9.5,43.3c4-16.5,10.6-29.8,19.6-39.9c9.1-10.1,20.5-16.1,34.3-18.1c4.4-0.6,9-0.9,13.6-1
			c4.7,0,8.8,0.2,12.5,0.6L3124,304.6z"/>
		<path class="st38" d="M3332.6,275l-33.9,4.5c-10.7,1.5-19.1,4.5-25.4,9.1c-6.3,4.5-10.6,10.4-13,17.4l27.8,195.7l-93.1,13.2
			l-42.3-298.2l87.6-12.4l9.5,43.3c4-16.5,10.6-29.8,19.6-39.9c9.1-10.1,20.5-16.1,34.3-18.1c4.4-0.6,9-0.9,13.6-1
			c4.7,0,8.8,0.2,12.5,0.6L3332.6,275z"/>
		<path class="st38" d="M3535.2,472.5c-43.9,6.2-80.9-2.6-111-26.4c-30.1-23.8-48.1-56.5-54-98l-1.5-10.5
			c-6.4-45.4,0.2-84.1,19.9-116.3c19.7-32.1,51.7-51.2,96-57.3c40.4-5.7,73.8,1.9,100.2,22.9c26.4,21,42.6,52.3,48.4,93.8l6.9,48.8
			L3470,353.6l-0.3,1.7c4.2,15,12.2,26.6,24.1,35c11.9,8.3,26.5,11.3,44,8.8c17.6-2.5,31.5-5.9,41.7-10.1
			c10.2-4.3,22.9-10.9,38.1-20l30.1,53.6c-11.7,11.4-27.4,21.7-47.2,31C3580.6,462.9,3558.9,469.2,3535.2,472.5z M3494.9,235.7
			c-13.4,1.9-22.8,8.1-28.1,18.6c-5.4,10.5-7.6,23.9-6.8,40l1,1.3l80.2-11.4l-1-7.2c-2.1-15.1-6.9-26.2-14.3-33.4
			C3518.4,236.4,3508.1,233.8,3494.9,235.7z"/>
		<path class="st38" d="M3794.2,429.9l-93.4,13.2l-61-429.9L3733.3,0L3794.2,429.9z"/>
		<path class="st38" d="M2088.8,1009.4c-14.1-14.9-25-28.8-32.8-41.7c-7.7-13-12.6-26.5-14.6-40.7c-4.5-32,2.2-59.5,20.1-82.5
			c17.9-23.1,43.9-37,78.1-41.9c29.2-4.1,54.3,1.9,75.2,18c20.9,16.1,33.3,37.6,37.1,64.5c2.6,18,0.7,35.3-5.4,51.9
			c-6.2,16.6-15.7,31.1-28.6,43.4l-21.6,20.2l78.2,67.6c5-11.2,8.3-23.2,10.1-36c1.7-12.8,1.7-26-0.3-39.6l65.6-9.3
			c3.7,26.1,4.2,50.4,1.5,72.9c-2.7,22.5-9.2,43.1-19.5,61.8l70.5,61.1l-0.4,1.5l-101.7,14.4l-23.7-20.3
			c-14.6,12.2-29.5,21.8-44.7,28.7c-15.2,6.9-32.4,11.8-51.5,14.5c-40.1,5.7-73.4-0.3-100.1-17.9c-26.7-17.6-42.4-43.3-47.2-77.1
			c-3-21.3,0.1-40.3,9.2-56.8c9.2-16.6,24.4-35.3,45.6-56.1L2088.8,1009.4z M2121.8,914.5c1,7.2,3.8,14.2,8.3,21.2
			c4.5,6.9,10.9,14.3,19.2,22.2l15-12.8c9.3-8.1,15.3-15.5,17.9-22.2c2.6-6.7,3.4-13.9,2.3-21.4c-1.1-8.1-5-14.9-11.5-20.6
			c-6.5-5.6-14.4-7.8-23.6-6.5c-10.5,1.5-18.1,6-22.8,13.6C2122,895.5,2120.3,904.4,2121.8,914.5z M2176.7,1145.4
			c7.9-1.1,15.7-3.1,23.5-5.9c7.8-2.8,15.2-6.5,22.5-11.1l-85.4-72.8l-2.2,2c-4.7,7.8-7.7,15.3-9,22.5c-1.3,7.2-1.4,15-0.2,23.2
			c2,14.1,7.9,25.1,17.7,32.9C2153.3,1144.1,2164.4,1147.1,2176.7,1145.4z"/>
		<path class="st38" d="M2786.5,1046.5l-126.5,17.9l-11.5,81.2l-93.7,13.3l72.6-419.6l100-14.2l186.7,382.8l-93.7,13.3
			L2786.5,1046.5z M2670.5,989.9l85.2-12.1l-62.2-137.6l-1.7,0.2L2670.5,989.9z"/>
		<path class="st38" d="M3075.3,864.7l-33.9,4.5c-10.7,1.5-19.1,4.5-25.4,9.1c-6.3,4.5-10.6,10.4-13,17.4l27.8,195.7l-93.1,13.2
			l-42.3-298.2l87.6-12.4l9.5,43.3c4-16.5,10.6-29.8,19.6-39.9c9.1-10.1,20.5-16.1,34.3-18.1c4.4-0.6,9-0.9,13.6-1
			c4.7,0,8.8,0.2,12.5,0.6L3075.3,864.7z"/>
		<path class="st38" d="M3283.9,835.1l-33.9,4.5c-10.7,1.5-19.1,4.5-25.4,9.1c-6.3,4.5-10.6,10.4-13,17.4l27.8,195.7l-93.1,13.2
			l-42.3-298.2l87.6-12.4l9.5,43.3c4-16.5,10.6-29.8,19.6-39.9c9.1-10.1,20.5-16.1,34.3-18.1c4.4-0.6,9-0.9,13.6-1
			c4.7,0,8.8,0.2,12.5,0.6L3283.9,835.1z"/>
		<path class="st38" d="M3315.3,896.2c-6.4-44.8,1.1-83.1,22.5-114.9c21.4-31.8,54.7-50.9,100.1-57.3c45.6-6.5,83,2.6,112.4,27.2
			c29.4,24.6,47.2,59.3,53.6,104.1l0.8,5.8c6.4,45-1.1,83.4-22.5,115.1c-21.4,31.7-54.6,50.8-99.8,57.2c-45.7,6.5-83.3-2.5-112.6-27
			s-47.2-59.3-53.6-104.3L3315.3,896.2z M3409.3,888.7c3.5,25,10.2,44,20.1,57.2c9.8,13.1,24.1,18.4,42.8,15.7
			c18.2-2.6,30.2-11.6,36.1-27c5.9-15.5,7-35.6,3.5-60.4l-0.8-5.8c-3.4-24.2-10.1-43.1-20.1-56.6c-10-13.5-24.2-18.9-42.8-16.3
			c-18.4,2.6-30.4,11.8-36.1,27.6c-5.7,15.8-6.9,35.7-3.5,59.8L3409.3,888.7z"/>
		<path class="st38" d="M3904.6,839.6l1.7-0.2L3914,662l86-12.2l-27.7,308.1l-78.8,11.2l-70.9-151.3l-1.7,0.2l-26.3,165.1
			l-78.5,11.1L3603.5,706l86-12.2l57.5,169.5l1.7-0.2l23.8-181l58.7-8.3L3904.6,839.6z"/>
	</g>
</g>
</svg>
